<?xml version="1.0" encoding="utf-8"?>
<!-- Generator: Adobe Illustrator 22.0.1, SVG Export Plug-In . SVG Version: 6.00 Build 0)  -->
<svg version="1.1" id="Layer_1" xmlns="http://www.w3.org/2000/svg" xmlns:xlink="http://www.w3.org/1999/xlink" x="0px" y="0px"
	 viewBox="0 0 266 266" style="enable-background:new 0 0 266 266;" xml:space="preserve">
<style type="text/css">
	.st0{opacity:7.000000e-02;fill:#4D4D4D;enable-background:new    ;}
	.st1{fill:#E49C6E;}
	.st2{fill:#4090B4;}
	.st3{fill:#F1A778;}
	.st4{fill:#1E1E2F;}
	.st5{fill:#F9F5BB;}
	.st6{opacity:0.7;fill:#D9DBFF;enable-background:new    ;}
	.st7{fill:#666666;}
	.st8{fill:#F9D6BB;}
</style>
<g id="Group_677" transform="translate(-6065 -527)">
	<g id="Group_606" transform="translate(6065 769.943)">
		<path id="Path_3973" class="st0" d="M211.2,11.5c0,4.5-35,8.2-78.2,8.2S54.8,16,54.8,11.5s35-8.2,78.2-8.2S211.2,7,211.2,11.5z"/>
		<path id="Path_3974" class="st0" d="M205,11.5c0,4.2-32.2,7.5-72,7.5s-72-3.4-72-7.5S93.2,4,133,4S205,7.4,205,11.5z"/>
		<path id="Path_3975" class="st0" d="M241,11.5c0,6.2-48.4,11.3-108,11.3S25,17.8,25,11.5S73.4,0.2,133,0.2S241,5.3,241,11.5z"/>
		<path id="Path_3976" class="st0" d="M232.5,11.5c0,5.7-44.5,10.4-99.5,10.4s-99.5-4.7-99.5-10.4S78.1,1.1,133,1.1
			S232.5,5.8,232.5,11.5z"/>
		<path id="Path_3977" class="st0" d="M225.2,11.5c0,5.3-41.3,9.7-92.2,9.7s-92.2-4.3-92.2-9.7S82.1,1.9,133,1.9
			S225.2,6.2,225.2,11.5z"/>
		<ellipse id="Ellipse_183" class="st0" cx="133" cy="11.5" rx="84.3" ry="8.8"/>
		<path id="Path_3978" class="st0" d="M167.9,11.5c0,2-15.6,3.7-34.9,3.7s-34.9-1.6-34.9-3.7s15.6-3.7,34.9-3.7
			S167.9,9.5,167.9,11.5z"/>
		<path id="Path_3979" class="st0" d="M165.1,11.5c0,1.9-14.4,3.4-32.1,3.4s-32.1-1.5-32.1-3.4s14.4-3.4,32.1-3.4
			S165.1,9.7,165.1,11.5z"/>
		<path id="Path_3980" class="st0" d="M162.8,11.5c0,1.7-13.3,3.1-29.8,3.1s-29.8-1.4-29.8-3.1s13.3-3.1,29.8-3.1
			S162.8,9.8,162.8,11.5z"/>
		<path id="Path_3981" class="st0" d="M160.3,11.5c0,1.6-12.2,2.9-27.3,2.9s-27.3-1.3-27.3-2.9s12.2-2.9,27.3-2.9
			S160.3,10,160.3,11.5z"/>
		<path id="Path_3982" class="st0" d="M180.9,11.5c0,2.8-21.4,5-47.9,5s-47.9-2.2-47.9-5s21.4-5,47.9-5S180.9,8.8,180.9,11.5z"/>
		<path id="Path_3983" class="st0" d="M177.1,11.5c0,2.5-19.7,4.6-44.1,4.6s-44.1-2.1-44.1-4.6s19.7-4.6,44.1-4.6
			S177.1,9,177.1,11.5z"/>
		<ellipse id="Ellipse_184" class="st0" cx="133" cy="11.5" rx="40.9" ry="4.3"/>
		<path id="Path_3984" class="st0" d="M170.4,11.5c0,2.2-16.7,3.9-37.4,3.9c-20.6,0-37.4-1.8-37.4-3.9s16.7-3.9,37.4-3.9
			S170.4,9.4,170.4,11.5z"/>
		<ellipse id="Ellipse_185" class="st0" cx="133" cy="11.5" rx="66.2" ry="6.9"/>
		<path id="Path_3985" class="st0" d="M193.9,11.5c0,3.5-27.3,6.4-60.9,6.4S72.1,15,72.1,11.5S99.4,5.2,133,5.2S193.9,8,193.9,11.5z
			"/>
		<path id="Path_3986" class="st0" d="M189.5,11.5c0,3.3-25.3,5.9-56.5,5.9s-56.5-2.6-56.5-5.9s25.3-5.9,56.5-5.9
			S189.5,8.3,189.5,11.5z"/>
		<path id="Path_3987" class="st0" d="M184.7,11.5c0,3-23.1,5.4-51.7,5.4s-51.7-2.4-51.7-5.4s23.1-5.4,51.7-5.4
			S184.7,8.5,184.7,11.5z"/>
		<path id="Path_3988" class="st0" d="M157.1,11.5c0,1.4-10.8,2.5-24.1,2.5s-24.1-1.1-24.1-2.5S119.7,9,133,9S157.1,10.1,157.1,11.5
			z"/>
		<path id="Path_3989" class="st0" d="M154.9,11.5c0,1.3-9.8,2.3-21.9,2.3s-21.9-1-21.9-2.3s9.8-2.3,21.9-2.3S154.9,10.3,154.9,11.5
			z"/>
		<path id="Path_3990" class="st0" d="M153.5,11.5c0,1.2-9.2,2.1-20.5,2.1s-20.5-1-20.5-2.1s9.2-2.1,20.5-2.1S153.5,10.3,153.5,11.5
			z"/>
		<path id="Path_3991" class="st0" d="M151.8,11.5c0,1.1-8.4,2-18.8,2s-18.8-0.9-18.8-2s8.4-2,18.8-2S151.8,10.4,151.8,11.5z"/>
		<path id="Path_3992" class="st0" d="M150.5,11.5c0,1-7.8,1.8-17.5,1.8s-17.5-0.8-17.5-1.8s7.8-1.8,17.5-1.8
			C142.6,9.7,150.5,10.5,150.5,11.5z"/>
		<path id="Path_3993" class="st0" d="M149,11.5c0,0.9-7.2,1.7-16,1.7s-16-0.7-16-1.7s7.2-1.7,16-1.7S149,10.6,149,11.5z"/>
		<path id="Path_3994" class="st0" d="M147.1,11.5c0,0.8-6.3,1.5-14.1,1.5s-14.1-0.7-14.1-1.5s6.3-1.5,14.1-1.5
			C140.8,10.1,147.1,10.7,147.1,11.5z"/>
		<path id="Path_3995" class="st0" d="M145.9,11.5c0,0.7-5.8,1.3-12.9,1.3c-7.1,0-12.9-0.6-12.9-1.3s5.8-1.3,12.9-1.3
			C140.1,10.2,145.9,10.8,145.9,11.5z"/>
		<path id="Path_3996" class="st0" d="M145.9,11.5c0,0.7-5.8,1.3-12.9,1.3c-7.1,0-12.9-0.6-12.9-1.3s5.8-1.3,12.9-1.3
			C140.1,10.2,145.9,10.8,145.9,11.5z"/>
		<path id="Path_3997" class="st0" d="M144.8,11.5c0,0.7-5.3,1.2-11.8,1.2c-6.5,0-11.8-0.6-11.8-1.2s5.3-1.2,11.8-1.2
			C139.5,10.3,144.8,10.8,144.8,11.5z"/>
		<path id="Path_3998" class="st0" d="M144,11.5c0,0.6-4.9,1.1-11,1.1s-11-0.5-11-1.1s4.9-1.1,11-1.1S144,10.9,144,11.5z"/>
		<path id="Path_3999" class="st0" d="M143,11.5c0,0.6-4.5,1.1-10,1.1c-5.5,0-10-0.5-10-1.1s4.5-1.1,10-1.1
			C138.5,10.5,143,10.9,143,11.5z"/>
		<path id="Path_4000" class="st0" d="M141.9,11.5c0,0.5-4,0.9-8.9,0.9s-8.9-0.4-8.9-0.9s4-0.9,8.9-0.9S141.9,11,141.9,11.5z"/>
		<path id="Path_4001" class="st0" d="M141.1,11.5c0,0.5-3.6,0.8-8.1,0.8s-8.1-0.4-8.1-0.8s3.6-0.8,8.1-0.8
			C137.5,10.7,141.1,11.1,141.1,11.5z"/>
		<path id="Path_4002" class="st0" d="M140.5,11.5c0,0.4-3.4,0.8-7.5,0.8s-7.5-0.4-7.5-0.8s3.4-0.8,7.5-0.8
			C137.2,10.7,140.5,11.1,140.5,11.5z"/>
		<path id="Path_4003" class="st0" d="M139.9,11.5c0,0.4-3.1,0.7-6.9,0.7s-6.9-0.3-6.9-0.7s3.1-0.7,6.9-0.7S139.9,11.1,139.9,11.5z"
			/>
		<path id="Path_4004" class="st0" d="M139.4,11.5c0,0.4-2.9,0.7-6.4,0.7s-6.4-0.3-6.4-0.7s2.9-0.7,6.4-0.7S139.4,11.2,139.4,11.5z"
			/>
		<path id="Path_4005" class="st0" d="M138.9,11.5c0,0.3-2.6,0.6-5.9,0.6s-5.9-0.3-5.9-0.6s2.6-0.6,5.9-0.6S138.9,11.2,138.9,11.5z"
			/>
		<path id="Path_4006" class="st0" d="M138.2,11.5c0,0.3-2.3,0.5-5.2,0.5s-5.2-0.2-5.2-0.5s2.3-0.5,5.2-0.5S138.2,11.2,138.2,11.5z"
			/>
		<path id="Path_4007" class="st0" d="M137.7,11.5c0,0.3-2.1,0.5-4.7,0.5s-4.7-0.2-4.7-0.5s2.1-0.5,4.7-0.5S137.7,11.3,137.7,11.5z"
			/>
		<path id="Path_4008" class="st0" d="M137.1,11.5c0,0.2-1.8,0.4-4.1,0.4s-4.1-0.2-4.1-0.4s1.8-0.4,4.1-0.4
			C135.2,11.1,137.1,11.3,137.1,11.5z"/>
		<path id="Path_4009" class="st0" d="M136.3,11.5c0,0.2-1.5,0.4-3.3,0.4c-1.8,0-3.3-0.2-3.3-0.4s1.5-0.4,3.3-0.4
			C134.8,11.2,136.3,11.3,136.3,11.5z"/>
		<path id="Path_4010" class="st0" d="M135.3,11.5c-1.5,0.3-3.1,0.3-4.6,0C132.2,11.2,133.8,11.2,135.3,11.5z"/>
		<path id="Path_4011" class="st0" d="M134.6,11.5c-1,0.2-2.1,0.2-3.1,0C132.5,11.3,133.5,11.3,134.6,11.5z"/>
	</g>
	<path id="Path_4012" class="st1" d="M6115.9,748.2c2.3,5,6.7,9,11.2,11.7l3,1.8l6,3.6c1.2,0.7,2.3,1.4,3.5,2.1
		c0.9,0.6,2.5,0.4,2.8-0.9c0.3-1.3-0.8-2.3-1.7-3c-0.8-0.7-1.6-1.4-2.4-2.1c-1.7-1.4-3.3-3-4.9-4.4c-0.4-0.3-0.7-0.7-1.1-1l1.3,0.9
		l3.2,2.3c1.3,1,2.7,1.9,4,2.9c1.3,0.9,2.5,1.8,3.8,2.8c0.9,0.7,1.8,1.4,2.8,2c0.8,0.5,2.2,0.8,3,0c0.3-0.5,0.4-1.1,0.3-1.7
		c-0.2-0.7-0.5-1.4-1.1-1.9c-0.5-0.4-0.9-0.9-1.3-1.3c-1.2-1.2-2.5-2.4-3.8-3.5c-1.4-1.2-2.9-2.5-4.3-3.7c-1.2-1-2.4-2-3.6-3
		c-0.6-0.5-1.1-1-1.7-1.4l0,0l17,13.4c1.1,0.9,3.9,2.4,5.1,0.4c0.3-0.9,0.3-1.9-0.2-2.8c-0.4-0.7-1-1.3-1.7-1.8
		c-1.3-1.1-2.4-2.3-3.7-3.4c-2.7-2.2-5.3-4.5-8.1-6.6c-0.6-0.5-1.2-1-1.8-1.4c2,1.7,4.2,3.3,6.4,4.7c2.5,1.7,4.2,3.2,6.2,4.3
		c0.5,0.4,1.2,0.7,1.8,0.9c0.9,0.1,1.8-0.2,2.5-0.9c0.6-1,0-2.7-0.9-3.5c-4.1-3.7-8.5-7.1-13.1-10.1c0,0-3.9-2.4-4.3-2.8
		c0,0,7.5,4.1,12.5,3.2c0,0,6.5-3.3-4.1-5.5c0,0-6-2.7-9.7-4.5c-4.9-2.3-10.5-2.8-15.7-1.3c0,0-6.9-4.3-8.7-5.8l-6.6,8.6
		C6107.8,735.6,6114.2,744.5,6115.9,748.2z"/>
	<path id="Path_4013" class="st1" d="M6282.9,739.8c0.5,5.5-1.4,11.2-3.9,15.7c-0.6,1-1.2,2.1-1.7,3.1c-1.1,2-2.3,4.1-3.4,6.1
		c-0.7,1.2-1.3,2.4-2,3.6c-0.5,1-2,1.5-2.8,0.6c-0.9-1-0.5-2.3,0-3.4c0.4-1,0.6-2,1-3c0.7-2.1,1.4-4.2,2.1-6.3
		c0.2-0.5,0.3-0.9,0.5-1.4c-0.2,0.5-0.4,1-0.7,1.5c-0.5,1.2-1.1,2.4-1.6,3.6c-0.7,1.5-1.4,3-2.1,4.5c-0.6,1.4-1.3,2.9-2,4.3
		c-0.5,1-0.9,2.1-1.4,3.1c-0.5,0.9-1.5,1.8-2.6,1.4c-0.5-0.3-0.9-0.7-1.1-1.3c-0.2-0.7-0.2-1.5,0-2.2c0.2-0.6,0.4-1.2,0.5-1.8
		c0.4-1.7,1-3.3,1.6-4.9c0.6-1.8,1.3-3.6,1.9-5.3c0.6-1.5,1.1-2.9,1.7-4.4c0.3-0.7,0.5-1.4,0.8-2.1c0,0,0,0,0,0c0,0-8.2,20-8.2,20
		c-0.6,1.3-2.2,4-4.2,2.9c-0.7-0.6-1.2-1.6-1.2-2.5c0-0.8,0.2-1.6,0.6-2.4c0.5-1.6,1-3.2,1.6-4.8c1.2-3.3,2.4-6.5,3.7-9.8
		c0.3-0.7,0.6-1.4,0.9-2.1c-0.9,2.5-2,4.9-3.2,7.3c-1.4,2.8-2.1,4.8-3.2,6.8c-0.3,0.6-0.7,1.2-1.2,1.7c-0.8,0.5-1.7,0.7-2.6,0.5
		c-1-0.5-1.3-2.4-0.9-3.5c1.7-5.3,3.9-10.4,6.5-15.3c0,0,2.2-4,2.3-4.5c0,0-4.5,7.3-9.3,9c0,0-7.3,0.4,0.8-6.8c0,0,3.9-5.3,6.2-8.7
		c3.1-4.5,7.8-7.6,13.1-8.9c0,0,3.9-7.1,4.7-9.3l14.3,6C6288.1,726.6,6282.6,735.7,6282.9,739.8z"/>
	<path id="Path_4014" class="st1" d="M6181.3,620.1c0,0,3.4,9.6-6.3,16.8c0,0,22.3,22.9,51.5,0c0,0-11.1-1.1-7-22.9L6181.3,620.1z"
		/>
	<path id="Path_4015" class="st2" d="M6294.6,717.9l-20.2-52.8c-4.5-13.2-16-21.1-28-26c-6.5-2.7-13.1-5.3-19.6-8
		c-21.9,24-49.4,0-49.4,0c-4.1,2.2-8.1,4.5-12.2,6.8c-11.3,6.3-24.6,11-31.6,22.5l-32.2,56.4c0,0,2.9,21.2,11.2,26.5
		c0,0,2.4-12.9,19.6-11.1l-2.7-13.4l28.4-29l4.5,49.2h75.8l5.9-49.1l24,27.6l-10.7,19.2c17.9-7.4,25.5,4.8,25.5,4.8
		S6292,730.6,6294.6,717.9"/>
	<path id="Path_4016" class="st3" d="M6233.7,584.2c0-28.3-15.5-43.8-34.7-43.8c-19.1,0-34.6,15.4-34.7,43.8c-1.1,0-6.8,0.4-3.6,6.9
		c2.2,2.8,3.5,6.2,3.7,9.7c0,0,1.2,2.9,3.1,1.6c3.9,10.3,10.8,19.2,19.7,25.7c0,0,12.9,8.5,22.5,0.9c10-5.9,17.5-15.3,21.1-26.3
		c1.5,0.5,2.6-1.9,2.6-1.9c0.3-3.5,1.6-6.9,3.7-9.7C6240.5,584.6,6234.8,584.3,6233.7,584.2z"/>
	<path id="Path_4017" class="st4" d="M6234.1,584.4c-1.1,2.4-6.4,5.7-5.8,8.8l0,0c-0.7-1.1,0.1-4.5,0-5.8c-0.2-2.3-0.6-4.5-1.2-6.7
		c-0.9-4.6-2.7-9.1-5.3-13c-3.2-4.8-6.9-7.9-13.3-7.6c-3.8,0.2-9.6,1.1-10.2,5.7c-3.3-7.7-17.2-7.6-21.8-1.2
		c-2.7,3.8-3.8,8-4.5,12.5c-0.4,2.7-0.5,5.5-1.1,8.1c-0.3,1.6-0.6,4.9-1.4,6c-0.7-2.9-2.6-5.4-5.2-6.9c-4.2-2.1-0.4-23,0.5-26.1
		c4.4-14.9,17.4-23.6,32.4-25.2c7.5-0.8,13-1.4,20-5.7c-1.7,1.2-0.8,6.3-2.2,7.9c4.4-0.7,8.5-2.1,13.2-1.7c-2.5,1.8-1.3,4.6-2.6,7.3
		c5.4-0.3,9.4,6.4,12.2,10.2c-2.6-0.7-5-2-7.6-2.8C6241.7,551.4,6237.5,577.1,6234.1,584.4z"/>
	<path id="Path_4018" class="st5" d="M6177.3,631.1l-8.8,4.9c0,0,15.6,14.2,31.6,14.3c0.2,0,0.3,0,0.5,0
		c16.2-0.2,27.5-4.9,33.6-16.1l-7.5-3.1c0,0-12.3,10.9-22.9,10.6C6203.9,641.7,6192.6,642.3,6177.3,631.1z"/>
	<path id="Rectangle_110" d="M6141.1,672.3h115.5c3.3,0,5.9,2.7,5.9,5.9v84c0,3.3-2.7,5.9-5.9,5.9h-115.5c-3.3,0-5.9-2.7-5.9-5.9
		c0,0,0,0,0,0v-84C6135.2,674.9,6137.9,672.3,6141.1,672.3z"/>
	<path id="Path_4019" class="st6" d="M6136.7,678.9v47.5c0,21.6,2.4,39.1,5.4,39.1h113.5c3,0,5.4-17.5,5.4-39.1v-47.5H6136.7z"/>
	<rect id="Rectangle_111" x="6154.3" y="766.7" class="st7" width="17.6" height="4.2"/>
	<rect id="Rectangle_112" x="6222.8" y="766.7" class="st7" width="17.6" height="4.2"/>
	<path id="Path_4020" d="M6122.2,772.6h153.7c0,0-2.1,6.7-6,9.3h-133.8C6136.2,781.8,6123.6,780.6,6122.2,772.6z"/>
	<g id="Group_610" transform="translate(6141.15 581.287)">
		<path id="Path_4021" class="st8" d="M74.8,0.8c-1.8,0.1-3.6,0.5-5.4,1c-0.4,0.1-0.9,0.3-1.3,0.4c-5.6,1.9-11.6,2-17.2,0.2
			c-0.6-0.3-1.3-0.6-1.9-0.8l0,0l0,0c-1.9-0.6-3.9-1-5.9-1.2C28.2-0.8,25.8,5.4,28.3,12.8c2.2,6.5,5.8,9.9,14,9.9s12.4-2.2,14-9.9
			c0.3-1.1,0.3-2.3,0.2-3.5C57.9,8,60.1,8,61.6,9.2c-0.2,1.3-0.2,2.7,0.1,4c1.6,7.6,5.8,9.9,14,9.9s11.8-3.3,14-9.9
			C92.2,5.8,89.7-0.4,74.8,0.8z M52.7,12.9c-1.3,6-3.2,6.1-10,6.1s-8.2-1.1-10-6.1c-2.1-5.7-1.6-9.1,10.7-8.1
			C50.2,5.3,54.1,6.7,52.7,12.9L52.7,12.9z M85.3,13.3c-1.8,5.1-3.2,6.1-10,6.1s-8.7-0.2-10-6.1c-1.4-6.2,2.5-7.6,9.3-8.1
			C86.9,4.2,87.3,7.6,85.3,13.3L85.3,13.3z"/>
		<path id="Path_4022" class="st8" d="M30,10.9l-3.6,0.9L25,2.5h5.8L30,10.9z"/>
		<path id="Path_4023" class="st8" d="M88.1,10.9l3.6,0.9l1.4-9.3h-5.7L88.1,10.9z"/>
	</g>
</g>
</svg>
