<?xml version="1.0" encoding="utf-8"?>
<!-- Generator: Adobe Illustrator 22.0.1, SVG Export Plug-In . SVG Version: 6.00 Build 0)  -->
<svg version="1.1" id="Layer_1" xmlns="http://www.w3.org/2000/svg" xmlns:xlink="http://www.w3.org/1999/xlink" x="0px" y="0px"
	 viewBox="0 0 50 50" style="enable-background:new 0 0 50 50;" xml:space="preserve">
<style type="text/css">
	.st0{fill:#40B498;}
</style>
<g id="eye" transform="translate(0 -98.725)">
	<path id="Path_3801" class="st0" d="M25,109.7c-9,0-17.1,4.9-23.1,12.9c-0.5,0.7-0.5,1.6,0,2.2c6,8,14.2,12.9,23.1,12.9
		s17.1-4.9,23.1-12.9c0.5-0.7,0.5-1.6,0-2.2C42.1,114.6,34,109.7,25,109.7z M25.6,133.6c-5.4,0.4-10.2-3.8-10.5-9.2
		c-0.4-5.4,3.8-10.2,9.2-10.5c5.4-0.4,10.2,3.8,10.5,9.2c0,0.4,0,0.9,0,1.3C34.5,129.3,30.6,133.3,25.6,133.6L25.6,133.6z M25.3,129
		c-2.9,0.2-5.5-2-5.7-5c-0.2-2.9,2-5.5,5-5.7s5.5,2,5.7,5c0,0.2,0,0.5,0,0.7C30.1,126.7,28,128.9,25.3,129L25.3,129z"/>
</g>
</svg>
