<?xml version="1.0" encoding="utf-8"?>
<!-- Generator: Adobe Illustrator 22.0.1, SVG Export Plug-In . SVG Version: 6.00 Build 0)  -->
<svg version="1.1" id="Layer_1" xmlns="http://www.w3.org/2000/svg" xmlns:xlink="http://www.w3.org/1999/xlink" x="0px" y="0px"
	 viewBox="0 0 50 50" style="enable-background:new 0 0 50 50;" xml:space="preserve">
<style type="text/css">
	.st0{fill:#B44046;}
</style>
<g id="placeholder-filled-point" transform="translate(-12.883)">
	<path id="Path_3803" class="st0" d="M37.9,3.3c-8.8,0-16,7.2-16,16c0,2.3,0.5,4.5,1.4,6.5c4,8.8,11.7,18,13.9,20.6
		c0.3,0.4,0.9,0.4,1.3,0.1c0,0,0.1-0.1,0.1-0.1c2.3-2.6,9.9-11.9,13.9-20.6c0.9-2.1,1.4-4.3,1.4-6.5C53.9,10.4,46.7,3.3,37.9,3.3z
		 M37.9,27.6c-4.6,0-8.3-3.7-8.3-8.3s3.7-8.3,8.3-8.3c4.6,0,8.3,3.7,8.3,8.3C46.2,23.9,42.5,27.6,37.9,27.6z"/>
</g>
</svg>
