<?xml version="1.0" encoding="utf-8"?>
<!-- Generator: Adobe Illustrator 22.0.1, SVG Export Plug-In . SVG Version: 6.00 Build 0)  -->
<svg version="1.1" id="Layer_1" xmlns="http://www.w3.org/2000/svg" xmlns:xlink="http://www.w3.org/1999/xlink" x="0px" y="0px"
	 viewBox="0 0 50 50" style="enable-background:new 0 0 50 50;" xml:space="preserve">
<style type="text/css">
	.st0{fill:#B47240;}
</style>
<g id="star" transform="translate(0 -0.452)">
	<path id="Path_3863" class="st0" d="M25.8,9.5l4.4,10.4l11.3,1c0.5,0,0.9,0.5,0.8,1c0,0.2-0.1,0.4-0.3,0.6l-8.5,7.4l2.6,11
		c0.1,0.5-0.2,1-0.7,1.1c-0.2,0.1-0.5,0-0.7-0.1L25,36l-9.7,5.8c-0.4,0.3-1,0.1-1.2-0.3c-0.1-0.2-0.2-0.4-0.1-0.7l2.6-11L8,22.4
		c-0.4-0.3-0.4-0.9-0.1-1.3c0.2-0.2,0.4-0.3,0.6-0.3l11.3-1l4.4-10.4C24.4,9,24.9,8.8,25.3,9C25.6,9.1,25.7,9.3,25.8,9.5z"/>
</g>
</svg>
