<?xml version="1.0" encoding="utf-8"?>
<!-- Generator: Adobe Illustrator 22.0.1, SVG Export Plug-In . SVG Version: 6.00 Build 0)  -->
<svg version="1.1" id="Layer_1" xmlns="http://www.w3.org/2000/svg" xmlns:xlink="http://www.w3.org/1999/xlink" x="0px" y="0px"
	 viewBox="0 0 50 50" style="enable-background:new 0 0 50 50;" xml:space="preserve">
<style type="text/css">
	.st0{fill:#4090B4;}
</style>
<g id="multiple-users-silhouette" transform="translate(0 -6.348)">
	<path id="Path_3802" class="st0" d="M28.7,21.4c1.7,1.1,2.8,2.9,3,4.9c2.6,1.2,5.8,0.1,7-2.5c1.2-2.6,0.1-5.8-2.5-7s-5.8-0.1-7,2.5
		C28.9,19.9,28.7,20.7,28.7,21.4z M25.3,32.2c2.9,0,5.3-2.4,5.3-5.3c0-2.9-2.4-5.3-5.3-5.3c-2.9,0-5.3,2.4-5.3,5.3l0,0
		C20,29.8,22.3,32.2,25.3,32.2C25.3,32.2,25.3,32.2,25.3,32.2L25.3,32.2z M27.5,32.6H23c-3.7,0-6.8,3-6.8,6.8v5.5l0,0.1l0.4,0.1
		c3,1,6.1,1.5,9.2,1.5c2.8,0.1,5.5-0.4,8-1.5l0.4-0.2h0v-5.5C34.3,35.6,31.2,32.6,27.5,32.6z M36.2,27.1h-4.4c0,1.7-0.8,3.3-2,4.5
		c3.4,1,5.7,4.1,5.7,7.7V41c2.4,0,4.8-0.5,7.1-1.5l0.4-0.2h0v-5.5C43,30.1,40,27.1,36.2,27.1L36.2,27.1z M16,26.8c1,0,2-0.3,2.8-0.8
		c0.3-1.7,1.1-3.1,2.5-4.2c0-0.1,0-0.2,0-0.3c0-2.9-2.4-5.3-5.3-5.3s-5.3,2.4-5.3,5.3C10.7,24.4,13.1,26.8,16,26.8z M20.7,31.7
		c-1.2-1.2-2-2.8-2-4.5c-0.2,0-0.3,0-0.5,0h-4.5c-3.7,0-6.8,3-6.8,6.8v5.5l0,0.1l0.4,0.1c2.5,0.8,5,1.3,7.6,1.4v-1.7
		C15,35.8,17.3,32.7,20.7,31.7z"/>
</g>
</svg>
